<svg width="25" height="22" viewBox="0 0 25 22" fill="none" xmlns="http://www.w3.org/2000/svg">
<g clip-path="url(#clip0_1149_46402)">
<path d="M6.10693 13.2948L5.29609 16.1536L2.33251 16.2128C1.44683 14.6614 0.944458 12.8863 0.944458 11C0.944458 9.17589 1.41416 7.45577 2.24674 5.94116H2.24738L4.8858 6.39801L6.04159 8.8749C5.79969 9.54095 5.66784 10.256 5.66784 11C5.66793 11.8074 5.8228 12.5811 6.10693 13.2948Z" fill="#FBBB00"/>
<path d="M24.035 8.94507C24.1688 9.61048 24.2385 10.2977 24.2385 11C24.2385 11.7875 24.1509 12.5557 23.9839 13.2967C23.4169 15.8183 21.9354 18.0201 19.8831 19.5782L19.8824 19.5776L16.5592 19.4175L16.0889 16.6445C17.4507 15.8902 18.5149 14.7098 19.0755 13.2967H12.8475V8.94507H19.1664H24.035Z" fill="#518EF8"/>
<path d="M19.8825 19.5776L19.8831 19.5782C17.8871 21.0934 15.3516 22 12.5915 22C8.15605 22 4.29973 19.6586 2.33252 16.2129L6.10694 13.2949C7.09052 15.7741 9.6228 17.539 12.5915 17.539C13.8676 17.539 15.063 17.2132 16.0888 16.6445L19.8825 19.5776Z" fill="#28B446"/>
<path d="M20.0259 2.53241L16.2527 5.44981C15.1911 4.82307 13.9361 4.46102 12.5916 4.46102C9.55567 4.46102 6.97603 6.30682 6.04172 8.87494L2.24746 5.9412H2.24683C4.18524 2.41154 8.09019 0 12.5916 0C15.4176 0 18.0088 0.950726 20.0259 2.53241Z" fill="#F14336"/>
</g>
<defs>
<clipPath id="clip0_1149_46402">
<rect x="0.944458" width="23.2941" height="22" rx="11" fill="white"/>
</clipPath>
</defs>
</svg>
