<svg width="179" height="161" viewBox="0 0 179 161" fill="none" xmlns="http://www.w3.org/2000/svg">
<g clip-path="url(#clip0_140_8358)">
<path d="M85 160.859C129.183 160.859 165 125.042 165 80.8594C165 36.6766 129.183 0.859375 85 0.859375C40.8172 0.859375 5 36.6766 5 80.8594C5 125.042 40.8172 160.859 85 160.859Z" fill="#F3FFEC"/>
<rect x="25.9199" y="88.9648" width="140.625" height="55.9627" rx="7.95372" transform="rotate(-17.6954 25.9199 88.9648)" fill="#BAC0C8"/>
<rect x="25.1348" y="141.52" width="138.812" height="9.21274" rx="4.60637" transform="rotate(-17.6954 25.1348 141.52)" fill="#BAC0C8"/>
<rect x="121.613" y="208.593" width="140.625" height="14.4035" rx="7.20175" transform="rotate(-107.396 121.613 208.593)" fill="#BAC0C8"/>
<g clip-path="url(#clip1_140_8358)">
<path d="M158.195 39.1553L170.821 79.6468L79.9323 107.986L63.084 53.9512L140.787 29.7231C144.43 28.5872 148.198 29.0756 151.352 30.7805C154.502 32.4869 157.035 35.4163 158.2 39.1538L158.195 39.1553Z" fill="#50CF0B" stroke="#205304" stroke-width="0.861653" stroke-miterlimit="10"/>
<path d="M65.6287 53.1593C74.8582 50.2815 84.6901 55.4395 87.5679 64.669L99.2015 101.98L65.7527 112.409L54.119 75.0984C51.2412 65.869 56.3992 56.0371 65.6287 53.1593Z" fill="#50CF0B" stroke="#205304" stroke-width="0.861653" stroke-miterlimit="10"/>
<path d="M88.6085 104.998L51.0605 116.706L52.7451 122.109L90.293 110.401L88.6085 104.998Z" fill="#205304" stroke="#205304" stroke-width="0.861653" stroke-miterlimit="10"/>
<path d="M170.743 79.3882L88.5488 105.017L90.2334 110.419L172.427 84.7908L170.743 79.3882Z" fill="#50CF0B" stroke="#205304" stroke-width="0.861653" stroke-miterlimit="10"/>
<path d="M107.085 67.6346L146.056 55.4834C147.258 55.1084 148.541 55.7772 148.918 56.985L152.688 69.0773C153.063 70.28 152.394 71.5629 151.187 71.9395L143.617 74.2996C142.414 74.6747 141.131 74.0058 140.755 72.7981L138.48 65.502C138.105 64.2992 136.825 63.6238 135.618 64.0004L108.575 72.4323C107.373 72.8074 106.09 72.1385 105.713 70.9308L105.577 70.4934C105.202 69.2906 105.871 68.0078 107.078 67.6312L107.085 67.6346Z" fill="#B9EC9D"/>
<path d="M133.518 96.8688L121.455 100.63L145.299 177.1L157.361 173.339L133.518 96.8688Z" fill="black" stroke="#205304" stroke-width="0.861653" stroke-miterlimit="10"/>
<path d="M123.691 99.9316L147.396 175.954" stroke="#205304" stroke-width="4.21023" stroke-miterlimit="10"/>
<path d="M69.0953 71.6809C65.3834 60.5456 59.1531 59.5293 56.502 60.4131C57.0322 57.7618 62.0747 54.3561 64.0631 53.6934C78.4376 50.2824 84.3903 58.6721 86.4645 63.235L98.4949 101.4L79.7003 107.473C77.7119 100.182 72.8073 82.8161 69.0953 71.6809Z" fill="#205304"/>
</g>
</g>
<path d="M1 69.2692C12.7631 66.7194 13.682 77.7336 13.682 77.7336L14.4572 77.563C14.4572 77.563 10.6383 67.1839 22.4014 64.6246C10.6383 67.1744 9.71944 56.1602 9.71944 56.1602L8.94417 56.3308C8.94417 56.3308 12.7631 66.7099 1 69.2692Z" fill="#50CF0B" stroke="white" stroke-width="0.957129" stroke-miterlimit="10"/>
<path d="M156.914 102.985C168.505 99.7531 170.075 110.691 170.075 110.691L170.84 110.483C170.84 110.483 166.409 100.341 178 97.1085C166.409 100.341 164.839 89.4023 164.839 89.4023L164.073 89.6109C164.073 89.6109 168.505 99.7531 156.914 102.985Z" fill="#50CF0B" stroke="white" stroke-width="0.957129" stroke-miterlimit="10"/>
<defs>
<clipPath id="clip0_140_8358">
<rect x="5" y="0.859375" width="160" height="160" rx="80" fill="white"/>
</clipPath>
<clipPath id="clip1_140_8358">
<rect width="125.889" height="142.616" fill="white" transform="translate(33.9668 62.7578) rotate(-17.3177)"/>
</clipPath>
</defs>
</svg>
