<svg width="24" height="24" viewBox="0 0 24 24" fill="none" xmlns="http://www.w3.org/2000/svg">
<path opacity="0.5" fill-rule="evenodd" clip-rule="evenodd" d="M22 8.293C22 11.769 19.17 14.587 15.68 14.587C15.044 14.587 13.594 14.441 12.889 13.855L12.007 14.733C11.488 15.25 11.628 15.402 11.859 15.652C11.955 15.757 12.067 15.878 12.154 16.051C12.154 16.051 12.889 17.075 12.154 18.1C11.713 18.685 10.478 19.504 9.06796 18.1L8.77396 18.392C8.77396 18.392 9.65496 19.417 8.92096 20.442C8.47996 21.027 7.30396 21.612 6.27496 20.588L5.24696 21.612C4.54096 22.315 3.67896 21.905 3.33696 21.612L2.45396 20.734C1.63096 19.914 2.11096 19.026 2.45396 18.684L10.096 11.074C10.096 11.074 9.36096 9.904 9.36096 8.294C9.36096 4.818 12.191 2 15.681 2C19.171 2 22 4.818 22 8.293Z" fill="black"/>
<path d="M17.8851 8.29403C17.8837 8.87733 17.6508 9.43623 17.2375 9.84784C16.8242 10.2595 16.2644 10.4901 15.6811 10.489C15.0977 10.4901 14.5379 10.2595 14.1246 9.84784C13.7113 9.43623 13.4784 8.87733 13.4771 8.29403C13.4776 8.00512 13.535 7.71914 13.646 7.45243C13.7571 7.18571 13.9196 6.94348 14.1242 6.73956C14.3289 6.53564 14.5717 6.37403 14.8388 6.26396C15.106 6.15388 15.3921 6.0975 15.6811 6.09803C15.97 6.0975 16.2561 6.15388 16.5233 6.26396C16.7904 6.37403 17.0332 6.53564 17.2379 6.73956C17.4425 6.94348 17.605 7.18571 17.7161 7.45243C17.8271 7.71914 17.8845 8.00512 17.8851 8.29403Z" fill="black"/>
</svg>
