<svg width="40" height="40" viewBox="0 0 40 40" fill="none" xmlns="http://www.w3.org/2000/svg">
<rect width="40" height="40" rx="20" fill="#F5F5F5"/>
<path opacity="0.5" d="M30 19.798V22C30 25.771 30 27.657 28.828 28.828C27.656 29.999 25.771 30 22 30H18C14.229 30 12.343 30 11.172 28.828C10.001 27.656 10 25.771 10 22V14.95C10 14.067 10 13.626 10.07 13.258C10.2192 12.4678 10.6031 11.741 11.1717 11.1723C11.7402 10.6036 12.4669 10.2195 13.257 10.07C13.626 10 14.068 10 14.95 10C15.336 10 15.53 10 15.716 10.017C16.517 10.0922 17.2768 10.4073 17.896 10.921C18.04 11.04 18.176 11.176 18.45 11.45L19 12C19.816 12.816 20.224 13.224 20.712 13.495C20.9802 13.6445 21.2648 13.7626 21.56 13.847C22.098 14 22.675 14 23.828 14H24.202C26.834 14 28.151 14 29.006 14.77C29.0853 14.84 29.16 14.9147 29.23 14.994C30 15.849 30 17.166 30 19.798Z" fill="#2B64E3"/>
<path fill-rule="evenodd" clip-rule="evenodd" d="M17.25 21C17.25 20.4884 17.3928 19.987 17.6622 19.5521C17.9316 19.1172 18.317 18.7661 18.775 18.5382C19.233 18.3103 19.7455 18.2147 20.2549 18.2621C20.7643 18.3095 21.2503 18.4981 21.6584 18.8066C22.0665 19.1151 22.3804 19.5313 22.5649 20.0085C22.7494 20.4856 22.7972 21.0048 22.7028 21.5076C22.6084 22.0104 22.3757 22.4769 22.0307 22.8547C21.6857 23.2324 21.2422 23.5065 20.75 23.646V25.5C20.75 25.6989 20.671 25.8897 20.5303 26.0303C20.3897 26.171 20.1989 26.25 20 26.25C19.8011 26.25 19.6103 26.171 19.4697 26.0303C19.329 25.8897 19.25 25.6989 19.25 25.5V23.646C18.6741 23.4827 18.1671 23.136 17.8062 22.6585C17.4452 22.1809 17.2499 21.5986 17.25 21ZM18.75 21C18.75 20.6685 18.8817 20.3505 19.1161 20.1161C19.3505 19.8817 19.6685 19.75 20 19.75C20.3315 19.75 20.6495 19.8817 20.8839 20.1161C21.1183 20.3505 21.25 20.6685 21.25 21C21.25 21.3315 21.1183 21.6495 20.8839 21.8839C20.6495 22.1183 20.3315 22.25 20 22.25C19.6685 22.25 19.3505 22.1183 19.1161 21.8839C18.8817 21.6495 18.75 21.3315 18.75 21Z" fill="#2B64E3"/>
</svg>
