<svg width="25" height="24" viewBox="0 0 25 24" fill="none" xmlns="http://www.w3.org/2000/svg">
<path d="M12.5001 2.3999C11.2271 2.3999 10.0062 2.90562 9.10599 3.80579C8.20581 4.70596 7.7001 5.92686 7.7001 7.1999C7.7001 8.47294 8.20581 9.69384 9.10599 10.594C10.0062 11.4942 11.2271 11.9999 12.5001 11.9999C13.7731 11.9999 14.994 11.4942 15.8942 10.594C16.7944 9.69384 17.3001 8.47294 17.3001 7.1999C17.3001 5.92686 16.7944 4.70596 15.8942 3.80579C14.994 2.90562 13.7731 2.3999 12.5001 2.3999ZM6.5109 13.1999C6.19482 13.1985 5.88157 13.2595 5.58914 13.3795C5.29671 13.4995 5.03086 13.676 4.80686 13.899C4.58285 14.122 4.4051 14.3871 4.28381 14.679C4.16253 14.9708 4.10009 15.2838 4.1001 15.5999C4.1001 17.6291 5.0997 19.1591 6.6621 20.1563C7.9197 20.9579 9.5361 21.4139 11.3001 21.5519V20.3999C11.3001 19.9079 11.4945 19.4639 11.8293 19.1291L14.9253 16.0331C14.9079 15.8641 14.8995 15.6942 14.9001 15.5243C14.8938 14.7057 15.1139 13.9013 15.5361 13.1999H6.5109ZM12.6789 22.6223C12.7333 22.6791 12.7987 22.7241 12.8711 22.7547C12.9436 22.7852 13.0215 22.8006 13.1001 22.7999H15.5001C15.6144 22.7983 15.7267 22.7695 15.8277 22.7159C15.9075 22.6676 15.9701 22.5954 16.0065 22.5095C16.0427 22.4189 16.0677 22.3242 16.0809 22.2275C16.0937 22.1275 16.1001 22.0247 16.1001 21.9191V21.5999C16.3881 21.5935 16.6133 21.5843 16.7757 21.5723C16.9103 21.5701 17.0397 21.5199 17.1405 21.4307C17.2283 21.3325 17.2781 21.2061 17.2809 21.0743C17.2937 20.9191 17.3001 20.6943 17.3001 20.3999H17.9001C18.0321 20.3999 18.1385 20.3719 18.2193 20.3159C18.297 20.2627 18.3612 20.192 18.4065 20.1095C18.4509 20.0212 18.4793 19.9257 18.4905 19.8275C18.5025 19.7211 18.5089 19.6119 18.5097 19.4999C18.5031 19.4093 18.4999 19.3184 18.5001 19.2275V18.9935C18.7065 19.0687 18.9157 19.1219 19.1277 19.1531C19.3405 19.1843 19.5565 19.1999 19.7757 19.1999C20.2427 19.1987 20.7046 19.1026 21.1332 18.9173C21.5619 18.7321 21.9484 18.4616 22.2693 18.1223C22.5933 17.7839 22.8461 17.3995 23.0277 16.9691C23.2093 16.5363 23.3001 16.0799 23.3001 15.5999C23.3001 15.0999 23.2065 14.6311 23.0193 14.1935C22.8389 13.7663 22.5778 13.378 22.2501 13.0499C21.9219 12.7227 21.5336 12.4619 21.1065 12.2819C20.6624 12.0913 20.1834 11.9952 19.7001 11.9999C19.2121 12.0119 18.7529 12.1055 18.3225 12.2807C17.895 12.4525 17.5059 12.7074 17.1777 13.0307C16.8465 13.3563 16.5841 13.7315 16.3905 14.1563C16.1953 14.5857 16.0962 15.0526 16.1001 15.5243C16.1001 15.8179 16.1345 16.1275 16.2033 16.4531L12.6777 19.9775C12.6208 20.032 12.5756 20.0976 12.5451 20.1703C12.5145 20.2429 12.4992 20.3211 12.5001 20.3999V22.1999C12.5001 22.3623 12.5593 22.5031 12.6777 22.6223M21.2361 14.0627C21.3213 14.1452 21.3886 14.2443 21.4338 14.354C21.479 14.4636 21.5012 14.5813 21.4989 14.6999C21.5012 14.8185 21.479 14.9362 21.4338 15.0458C21.3886 15.1555 21.3213 15.2546 21.2361 15.3371C21.1536 15.4223 21.0545 15.4896 20.9448 15.5348C20.8352 15.58 20.7175 15.6022 20.5989 15.5999C20.4803 15.6022 20.3626 15.58 20.253 15.5348C20.1433 15.4896 20.0442 15.4223 19.9617 15.3371C19.8765 15.2546 19.8092 15.1555 19.764 15.0458C19.7188 14.9362 19.6966 14.8185 19.6989 14.6999C19.6989 14.4503 19.7865 14.2379 19.9617 14.0627C20.0442 13.9775 20.1433 13.9102 20.253 13.865C20.3626 13.8198 20.4803 13.7976 20.5989 13.7999C20.8485 13.7999 21.0609 13.8875 21.2361 14.0627Z" fill="white"/>
</svg>
