<svg width="15" height="15" viewBox="0 0 15 15" fill="none" xmlns="http://www.w3.org/2000/svg">
<path d="M9.95102 0.599976L9.92102 0.629976L9.95102 0.719976C10.211 1.46998 10.701 2.45198 11.625 3.37598C12.3946 4.15026 13.3347 4.7338 14.37 5.07998L7.52002 11.93C7.05802 12.392 6.82702 12.623 6.57202 12.821C6.27069 13.0556 5.94769 13.2556 5.60302 13.421C5.31202 13.559 5.00202 13.662 4.38302 13.869L1.11502 14.959C0.965488 15.0086 0.80509 15.0157 0.651776 14.9793C0.498462 14.943 0.358281 14.8647 0.246922 14.7533C0.135562 14.6418 0.0574172 14.5016 0.0212304 14.3482C-0.0149563 14.1949 -0.00775704 14.0345 0.0420234 13.885L1.13102 10.617C1.33702 9.99698 1.44102 9.68698 1.57902 9.39698C1.74369 9.05164 1.94369 8.72831 2.17902 8.42698C2.37702 8.17298 2.60802 7.94198 3.06902 7.47998L9.95102 0.599976Z" fill="black"/>
</svg>
