<svg width="24" height="24" viewBox="0 0 24 24" fill="none" xmlns="http://www.w3.org/2000/svg">
<path d="M4 4.22222C4 3.63285 4.23413 3.06762 4.65087 2.65087C5.06762 2.23413 5.63285 2 6.22222 2H11.5C11.5737 2 11.6443 2.02927 11.6964 2.08136C11.7485 2.13345 11.7778 2.20411 11.7778 2.27778V7.55556C11.7778 8.14493 12.0119 8.71016 12.4287 9.1269C12.8454 9.54365 13.4106 9.77778 14 9.77778H19.2778C19.3514 9.77778 19.4221 9.80704 19.4742 9.85914C19.5263 9.91123 19.5556 9.98188 19.5556 10.0556V19.7778C19.5556 20.3671 19.3214 20.9324 18.9047 21.3491C18.4879 21.7659 17.9227 22 17.3333 22H6.22222C5.63285 22 5.06762 21.7659 4.65087 21.3491C4.23413 20.9324 4 20.3671 4 19.7778V4.22222Z" fill="black" fill-opacity="0.25"/>
<path d="M12.8887 7.55554V2.6711C12.8886 2.61609 12.9048 2.56228 12.9353 2.51651C12.9658 2.47074 13.0093 2.43506 13.0601 2.41399C13.1109 2.39293 13.1668 2.38743 13.2208 2.39819C13.2747 2.40895 13.3243 2.43548 13.3631 2.47443L19.0809 8.19221C19.1198 8.23106 19.1464 8.2806 19.1571 8.33455C19.1679 8.3885 19.1624 8.44443 19.1413 8.49524C19.1203 8.54606 19.0846 8.58948 19.0388 8.62C18.993 8.65051 18.9392 8.66675 18.8842 8.66665H13.9998C13.7051 8.66665 13.4225 8.54959 13.2141 8.34122C13.0057 8.13284 12.8887 7.85023 12.8887 7.55554Z" fill="black"/>
<path d="M7.88867 13.6667H14.5553M7.88867 17H13.4442" stroke="black" stroke-width="1.5" stroke-linecap="round"/>
</svg>
