<svg width="40" height="40" viewBox="0 0 40 40" fill="none" xmlns="http://www.w3.org/2000/svg">
<rect width="40" height="40" rx="20" fill="#F5F5F5"/>
<path d="M13.75 15C13.5511 15 13.3603 15.079 13.2197 15.2197C13.079 15.3603 13 15.5511 13 15.75C13 15.9489 13.079 16.1397 13.2197 16.2803C13.3603 16.421 13.5511 16.5 13.75 16.5H17.75C17.9489 16.5 18.1397 16.421 18.2803 16.2803C18.421 16.1397 18.5 15.9489 18.5 15.75C18.5 15.5511 18.421 15.3603 18.2803 15.2197C18.1397 15.079 17.9489 15 17.75 15H13.75Z" fill="#2B64E3"/>
<path fill-rule="evenodd" clip-rule="evenodd" d="M29.188 16.0039C29.1253 16.0006 29.0587 15.9993 28.988 15.9999H26.215C23.944 15.9999 22 17.7359 22 19.9999C22 22.2639 23.944 23.9999 26.215 23.9999H28.988C29.0587 24.0006 29.1253 23.9993 29.188 23.9959C30.111 23.9399 30.927 23.2389 30.996 22.2589C31 22.1949 31 22.1259 31 22.0619V17.9379C31 17.8739 31 17.8049 30.996 17.7409C30.927 16.7609 30.111 16.0609 29.188 16.0039ZM25.971 21.0669C26.555 21.0669 27.029 20.5889 27.029 19.9999C27.029 19.4099 26.555 18.9329 25.971 18.9329C25.387 18.9329 24.911 19.4109 24.911 19.9999C24.911 20.5899 25.386 21.0669 25.971 21.0669Z" fill="#2B64E3"/>
<path opacity="0.5" d="M29.14 16.002C29.14 14.821 29.096 13.554 28.342 12.647C28.2681 12.5583 28.1903 12.4729 28.109 12.391C27.36 11.643 26.411 11.311 25.239 11.153C24.099 11 22.644 11 20.806 11H18.694C16.856 11 15.4 11 14.26 11.153C13.088 11.311 12.139 11.643 11.39 12.391C10.642 13.14 10.31 14.089 10.152 15.261C10 16.401 10 17.856 10 19.694V19.806C10 21.644 10 23.1 10.153 24.239C10.311 25.411 10.643 26.36 11.391 27.109C12.14 27.857 13.089 28.189 14.261 28.347C15.401 28.5 16.856 28.5 18.694 28.5H20.806C22.644 28.5 24.1 28.5 25.239 28.347C26.411 28.189 27.36 27.857 28.109 27.109C28.3123 26.9037 28.4877 26.6837 28.635 26.449C29.085 25.729 29.139 24.847 29.139 23.999L28.989 24H26.215C23.944 24 22 22.264 22 20C22 17.736 23.944 16 26.215 16H28.988C29.0407 16 29.092 16.0007 29.14 16.002Z" fill="#2B64E3"/>
</svg>
