<svg width="107" height="104" viewBox="0 0 107 104" fill="none" xmlns="http://www.w3.org/2000/svg">
<circle cx="59.5" cy="54.5" r="47.5" fill="black"/>
<circle cx="52" cy="52" r="51" fill="#2B64E3" stroke="black" stroke-width="2"/>
<path fill-rule="evenodd" clip-rule="evenodd" d="M51.9998 18.6667C70.4098 18.6667 85.3332 33.5901 85.3332 52.0001C85.3332 70.4101 70.4098 85.3334 51.9998 85.3334C33.5898 85.3334 18.6665 70.4101 18.6665 52.0001C18.6665 33.5901 33.5898 18.6667 51.9998 18.6667ZM58.6132 59.5001C56.8465 61.0601 54.5365 62.0001 51.9998 62.0001C49.5645 61.9998 47.213 61.1109 45.3865 59.5001C44.7235 58.9148 43.8551 58.617 42.9724 58.672C42.0897 58.727 41.2651 59.1304 40.6798 59.7934C40.0946 60.4565 39.7967 61.3248 39.8517 62.2075C39.9067 63.0902 40.3101 63.9148 40.9732 64.5001C44.0185 67.1858 47.9394 68.6674 51.9998 68.6667C56.0614 68.6736 59.9844 67.1911 63.0265 64.5001C63.6895 63.9148 64.0929 63.0902 64.148 62.2075C64.203 61.3248 63.9051 60.4565 63.3198 59.7934C62.7346 59.1304 61.9099 58.727 61.0273 58.672C60.1446 58.617 59.2762 58.9148 58.6132 59.5001ZM40.3332 38.6667C36.7098 38.6667 33.8065 40.9334 32.3532 43.8401C31.9711 44.6005 31.8944 45.4783 32.1387 46.2936C32.3831 47.1088 32.93 47.7996 33.6673 48.2246C34.4047 48.6495 35.2767 48.7763 36.1045 48.579C36.9324 48.3817 37.6534 47.8753 38.1198 47.1634L38.3132 46.8267C38.8532 45.7467 39.6798 45.3334 40.3332 45.3334C40.8998 45.3334 41.6065 45.6501 42.1365 46.4534L42.3532 46.8267C42.7533 47.61 43.4468 48.2034 44.2826 48.4776C45.1184 48.7518 46.0286 48.6845 46.815 48.2904C47.6013 47.8964 48.2001 47.2075 48.4807 46.3738C48.7614 45.5402 48.7011 44.6295 48.3132 43.8401C46.8565 40.9334 43.9565 38.6667 40.3332 38.6667ZM63.6665 38.6667C60.0432 38.6667 57.1432 40.9334 55.6865 43.8401C55.3044 44.6005 55.2277 45.4783 55.4721 46.2936C55.7164 47.1088 56.2633 47.7996 57.0007 48.2246C57.738 48.6495 58.61 48.7763 59.4378 48.579C60.2657 48.3817 60.9867 47.8753 61.4532 47.1634L61.6465 46.8267C62.1865 45.7467 63.0132 45.3334 63.6665 45.3334C64.2332 45.3334 64.9398 45.6501 65.4698 46.4534L65.6865 46.8267C65.8805 47.2216 66.1508 47.5741 66.4817 47.8639C66.8126 48.1538 67.1976 48.3753 67.6146 48.5156C68.0315 48.656 68.4721 48.7124 68.9109 48.6817C69.3497 48.651 69.7782 48.5337 70.1715 48.3366C70.5647 48.1395 70.9151 47.8665 71.2024 47.5334C71.4897 47.2002 71.7082 46.8135 71.8453 46.3955C71.9825 45.9775 72.0355 45.5365 72.0014 45.0979C71.9672 44.6593 71.8466 44.2318 71.6465 43.8401C70.1932 40.9334 67.2898 38.6667 63.6665 38.6667Z" fill="white"/>
</svg>
